<svg width="58" height="58" viewBox="0 0 58 58" fill="none" xmlns="http://www.w3.org/2000/svg">
<rect x="0.5" y="0.5" width="57" height="57" rx="28.5" fill="#F7F7F7"/>
<rect x="0.5" y="0.5" width="57" height="57" rx="28.5" stroke="#090909"/>
<line x1="10" y1="21" x2="48" y2="21" stroke="#090909" stroke-width="2"/>
<line x1="10" y1="28" x2="48" y2="28" stroke="#090909" stroke-width="2"/>
<line x1="10" y1="35" x2="48" y2="35" stroke="#090909" stroke-width="2"/>
<rect x="0.5" y="0.5" width="57" height="57" rx="28.5" fill="#5F90FF"/>
<rect x="0.5" y="0.5" width="57" height="57" rx="28.5" stroke="#090909"/>
<line x1="10" y1="21" x2="48" y2="21" stroke="#090909" stroke-width="2"/>
<line x1="10" y1="28" x2="48" y2="28" stroke="#090909" stroke-width="2"/>
<line x1="10" y1="35" x2="48" y2="35" stroke="#090909" stroke-width="2"/>
<rect x="3.5" y="4.5" width="50" height="50" rx="25" fill="#F7F7F7"/>
<rect x="3.5" y="4.5" width="50" height="50" rx="25" stroke="#090909"/>
<line x1="13" y1="22" x2="44" y2="22" stroke="#090909" stroke-width="2"/>
<line x1="13" y1="29" x2="44" y2="29" stroke="#090909" stroke-width="2"/>
<line x1="13" y1="36" x2="44" y2="36" stroke="#090909" stroke-width="2"/>
<rect x="3.5" y="4.5" width="50" height="50" rx="25" fill="#5F90FF"/>
<rect x="3.5" y="4.5" width="50" height="50" rx="25" stroke="#090909"/>
<line x1="13" y1="22" x2="44" y2="22" stroke="#090909" stroke-width="2"/>
<line x1="13" y1="29" x2="44" y2="29" stroke="#090909" stroke-width="2"/>
<line x1="13" y1="36" x2="44" y2="36" stroke="#090909" stroke-width="2"/>
</svg>
