<svg width="27" height="27" viewBox="0 0 27 27" fill="none" xmlns="http://www.w3.org/2000/svg">
<path fill-rule="evenodd" clip-rule="evenodd" d="M0.59375 13.5938C0.59375 6.41647 6.41647 0.59375 13.5938 0.59375C20.771 0.59375 26.5938 6.41647 26.5938 13.5938C26.5938 20.771 20.771 26.5938 13.5938 26.5938C6.41647 26.5938 0.59375 20.771 0.59375 13.5938ZM13.5938 2.59375C7.52103 2.59375 2.59375 7.52103 2.59375 13.5938C2.59375 19.6665 7.52103 24.5938 13.5938 24.5938C19.6665 24.5938 24.5938 19.6665 24.5938 13.5938C24.5938 7.52103 19.6665 2.59375 13.5938 2.59375Z" fill="black"/>
<path fill-rule="evenodd" clip-rule="evenodd" d="M8.88664 8.88664C9.27717 8.49612 9.91033 8.49612 10.3009 8.88664L18.3009 16.8866C18.6914 17.2772 18.6914 17.9103 18.3009 18.3009C17.9103 18.6914 17.2772 18.6914 16.8866 18.3009L8.88664 10.3009C8.49612 9.91033 8.49612 9.27717 8.88664 8.88664Z" fill="black"/>
<path fill-rule="evenodd" clip-rule="evenodd" d="M18.3009 8.88664C18.6914 9.27717 18.6914 9.91033 18.3009 10.3009L10.3009 18.3009C9.91033 18.6914 9.27717 18.6914 8.88664 18.3009C8.49612 17.9103 8.49612 17.2772 8.88664 16.8866L16.8866 8.88664C17.2772 8.49612 17.9103 8.49612 18.3009 8.88664Z" fill="black"/>
</svg>
