<svg xmlns="http://www.w3.org/2000/svg" width="61.385" height="77.368" viewBox="0 0 61.385 77.368"><g transform="translate(-88 -6091.832)"><path d="M-26.317-23.863a2.617,2.617,0,0,0-.44-.342v-.04a2,2,0,0,0,.387-.3,2.257,2.257,0,0,0,.36-.463l2.242-3.678h-2.682l-2.106,3.611h-.671c.011-.052.025-.1.034-.154a5.834,5.834,0,0,0,.087-.987v-2.47h-2.5v9.262h2.5v-3.1a3.98,3.98,0,0,0-.107-.866l0-.007h.662l2.155,3.973h2.776l-2.3-3.92a1.913,1.913,0,0,0-.4-.517" transform="translate(119.604 6188.438)"/><path d="M-36.617-4.945A2.7,2.7,0,0,0-37.9-5.717a7.049,7.049,0,0,0-1.935-.228,7.061,7.061,0,0,0-1.928.228,2.7,2.7,0,0,0-1.288.772,3.217,3.217,0,0,0-.707,1.47,10.717,10.717,0,0,0-.214,2.349,10.731,10.731,0,0,0,.214,2.342,3.223,3.223,0,0,0,.707,1.477,2.7,2.7,0,0,0,1.288.772,7.061,7.061,0,0,0,1.928.228A7.048,7.048,0,0,0-37.9,3.464a2.7,2.7,0,0,0,1.281-.772,3.225,3.225,0,0,0,.707-1.477A10.743,10.743,0,0,0-35.7-1.126a10.729,10.729,0,0,0-.214-2.349,3.219,3.219,0,0,0-.707-1.47m-1.848,5.6a1.378,1.378,0,0,1-.454.873,1.514,1.514,0,0,1-.914.242,1.511,1.511,0,0,1-.914-.242,1.4,1.4,0,0,1-.461-.873,9.125,9.125,0,0,1-.134-1.785,9.132,9.132,0,0,1,.134-1.785,1.4,1.4,0,0,1,.461-.872,1.512,1.512,0,0,1,.914-.242,1.515,1.515,0,0,1,.914.242,1.379,1.379,0,0,1,.454.872,9.622,9.622,0,0,1,.127,1.785A9.615,9.615,0,0,1-38.465.659" transform="translate(140.18 6165.507)"/><path d="M-33.195-28.244a1.551,1.551,0,0,0-.534-.436,1.717,1.717,0,0,0-.541-.161v-.081a2.216,2.216,0,0,0,1.094-.383,1.625,1.625,0,0,0,.567-.785,3.278,3.278,0,0,0,.167-1.074,3.136,3.136,0,0,0-.38-1.685,2.092,2.092,0,0,0-1.194-.852,7.219,7.219,0,0,0-2.108-.255q-.868,0-1.488.007t-1.141.034q-.52.027-1.108.094v9.262H-37.4v-3.5c.335,0,.72.006,1.161.012a1.017,1.017,0,0,1,.587.141.914.914,0,0,1,.294.57l.654,2.779h2.629l-.761-2.859a1.887,1.887,0,0,0-.354-.826m-1.875-2.067a.606.606,0,0,1-.367.342,2.278,2.278,0,0,1-.74.094H-37.4v-2.252q.562,0,1.228,0a2.282,2.282,0,0,1,.74.094.608.608,0,0,1,.367.336,1.8,1.8,0,0,1,.107.7,1.8,1.8,0,0,1-.107.691" transform="translate(145.744 6193.57)"/><path d="M-13.29,0h-2.669V1.919h2.669V9.262h2.509V1.919h2.655V0H-13.29Z" transform="translate(130.063 6159.75)"/><path d="M-33.2-28.244a1.55,1.55,0,0,0-.534-.436,1.719,1.719,0,0,0-.54-.161v-.081a2.216,2.216,0,0,0,1.094-.383,1.624,1.624,0,0,0,.567-.785,3.269,3.269,0,0,0,.167-1.074,3.136,3.136,0,0,0-.38-1.685,2.091,2.091,0,0,0-1.195-.852,7.216,7.216,0,0,0-2.108-.255q-.867,0-1.488.007t-1.141.034q-.521.027-1.108.094v9.262h2.455v-3.5c.335,0,.72.006,1.161.012a1.017,1.017,0,0,1,.587.141.914.914,0,0,1,.294.57l.654,2.779h2.629l-.76-2.859a1.885,1.885,0,0,0-.354-.826m-1.875-2.067a.607.607,0,0,1-.367.342,2.278,2.278,0,0,1-.741.094h-1.228v-2.252q.562,0,1.228,0a2.282,2.282,0,0,1,.741.094.609.609,0,0,1,.367.336,1.785,1.785,0,0,1,.107.7,1.794,1.794,0,0,1-.107.691" transform="translate(162.852 6193.57)"/><path d="M262.723-46.919h2.482v-9.262h-2.482Z" transform="translate(-130.791 6215.931)"/><path d="M-8.705-34.251q0,.6-.854.6h-.627l-.267,1.6a1.964,1.964,0,0,0,.554.175q.353.067.734.1t.647.034a2.575,2.575,0,0,0,1.681-.5,1.744,1.744,0,0,0,.614-1.43v-7.5H-8.705Z" transform="translate(145.961 6200.927)"/><path d="M-25.918-45.8h2.776l-2.295-3.92a1.914,1.914,0,0,0-.4-.517,2.609,2.609,0,0,0-.44-.342v-.04a1.988,1.988,0,0,0,.387-.3,2.236,2.236,0,0,0,.36-.463l2.242-3.678h-2.682l-2.106,3.611h-.671c.011-.052.025-.1.034-.154a5.817,5.817,0,0,0,.087-.987v-2.47h-2.5V-45.8h2.5v-3.1a4,4,0,0,0-.107-.866l0-.007h.662Z" transform="translate(172.527 6214.813)"/><path d="M-152.844-30.533a24.653,24.653,0,0,1,24.553,24.7,24.653,24.653,0,0,1-24.553,24.7A24.653,24.653,0,0,1-177.4-5.835a24.653,24.653,0,0,1,24.553-24.7m0-6.174A30.782,30.782,0,0,0-183.535-5.835a30.782,30.782,0,0,0,30.691,30.872A30.782,30.782,0,0,0-122.153-5.835a30.782,30.782,0,0,0-30.691-30.872" transform="translate(271.535 6128.539)"/><path d="M119.3-288.624h21.484v-6.155H119.3Z" transform="translate(-11.35 6414.395)"/><path d="M-85.345-74.948l-6.4-6.424-6.4,6.424-4.346-4.366L-91.74-90.1-81-79.314Z" transform="translate(210.445 6192.118)"/><path d="M-53.494-53.432A10.786,10.786,0,0,1-64.236-64.237h6.119a4.642,4.642,0,0,0,4.623,4.65,4.642,4.642,0,0,0,4.623-4.65h6.119A10.786,10.786,0,0,1-53.494-53.432" transform="translate(172.184 6194.658)"/></g></svg>