<svg xmlns="http://www.w3.org/2000/svg" xmlns:xlink="http://www.w3.org/1999/xlink" width="218.087" height="91.875" viewBox="0 0 218.087 91.875"><defs><clipPath id="a"><rect width="218.087" height="91.875" fill="none"/></clipPath></defs><g transform="translate(0.001)"><path d="M79.216,21.289,72.168,41.746H67.979L60.93,21.289h3.792l5.352,15.534,5.352-15.534Z" transform="translate(6.384 2.231)"/><path d="M79.7,19.8l3.119-.306h.458v22.14H79.7Z" transform="translate(8.351 2.042)"/><g transform="translate(-0.001 0)"><g clip-path="url(#a)"><path d="M98.642,41.371a4.319,4.319,0,0,1-1.773-.351,4.966,4.966,0,0,1-1.79-1.315,9.228,9.228,0,0,1-1.834,1.177,5.652,5.652,0,0,1-2.447.489,7.042,7.042,0,0,1-2.323-.382A4.1,4.1,0,0,1,86.441,39.5a5.37,5.37,0,0,1-.872-3.194,4.09,4.09,0,0,1,1.192-3.257c.857-.749,2.248-1.162,4.374-1.162.856,0,1.849,0,3.257.122v-.8a2.84,2.84,0,0,0-.918-2.323,3.407,3.407,0,0,0-2.186-.642,8.507,8.507,0,0,0-2.155.32,12.139,12.139,0,0,0-2.095.765L86.2,26.219a14.016,14.016,0,0,1,5.795-1.346,6.852,6.852,0,0,1,4.143,1.162A4.784,4.784,0,0,1,97.908,30.1V36a2.053,2.053,0,0,0,.673,1.653,3.545,3.545,0,0,0,1.682.718Zm-4.266-6.727a19.36,19.36,0,0,0-3.854.183,1.519,1.519,0,0,0-1.375,1.605,1.988,1.988,0,0,0,2.232,2.018,3.623,3.623,0,0,0,1.835-.489,2.528,2.528,0,0,0,1.162-2.354Z" transform="translate(8.967 2.606)"/><path d="M112.775,41.371A4.33,4.33,0,0,1,111,41.019a4.982,4.982,0,0,1-1.789-1.315,9.228,9.228,0,0,1-1.834,1.177,5.655,5.655,0,0,1-2.447.489,7.046,7.046,0,0,1-2.323-.382,4.1,4.1,0,0,1-2.034-1.484,5.362,5.362,0,0,1-.872-3.194,4.083,4.083,0,0,1,1.193-3.257c.855-.749,2.247-1.162,4.373-1.162.856,0,1.851,0,3.256.122v-.8a2.836,2.836,0,0,0-.917-2.323,3.406,3.406,0,0,0-2.185-.642,8.53,8.53,0,0,0-2.158.32,12.161,12.161,0,0,0-2.094.765l-.842-3.119a14.025,14.025,0,0,1,5.8-1.346,6.85,6.85,0,0,1,4.143,1.162,4.787,4.787,0,0,1,1.773,4.068V36a2.054,2.054,0,0,0,.674,1.653,3.546,3.546,0,0,0,1.68.718Zm-4.266-6.727a19.353,19.353,0,0,0-3.852.183,1.518,1.518,0,0,0-1.375,1.605,1.988,1.988,0,0,0,2.233,2.018,3.624,3.624,0,0,0,1.834-.489,2.529,2.529,0,0,0,1.161-2.354Z" transform="translate(10.448 2.606)"/><path d="M114.943,25.193h3.027l.352,1.238a9.294,9.294,0,0,1,5.062-1.544,6.082,6.082,0,0,1,4.019,1.329,5.472,5.472,0,0,1,1.743,4.314V41.064H125.57v-9.48a3.05,3.05,0,0,0-1.085-2.523,4.052,4.052,0,0,0-2.508-.732,6.7,6.7,0,0,0-3.457.978V41.064h-3.577Z" transform="translate(12.045 2.608)"/><path d="M144.667,41.63h-2.706l-.641-1.192a6.729,6.729,0,0,1-4.266,1.5,6.236,6.236,0,0,1-5.093-2.323,8.485,8.485,0,0,1-1.666-5.26,9.112,9.112,0,0,1,2.4-6.713,8.423,8.423,0,0,1,6.055-2.186,18.491,18.491,0,0,1,2.339.154V19.8l3.027-.306h.55ZM141.09,29.123a10.774,10.774,0,0,0-2.538-.337,4.432,4.432,0,0,0-3.3,1.224,5.143,5.143,0,0,0-1.254,3.7,5.7,5.7,0,0,0,.98,3.287,3.388,3.388,0,0,0,2.859,1.5,6.475,6.475,0,0,0,3.256-.979Z" transform="translate(13.653 2.042)"/><path d="M158.627,36.95v3.471a9.056,9.056,0,0,1-2.26.718,12.139,12.139,0,0,1-2.249.229,8.415,8.415,0,0,1-5.733-2.048,8.061,8.061,0,0,1-2.447-6.192A8.614,8.614,0,0,1,148.171,27a6.784,6.784,0,0,1,4.906-2.111,7.426,7.426,0,0,1,2.339.383,5.574,5.574,0,0,1,2.723,1.987,8.059,8.059,0,0,1,1.3,4.816v2.386h-9.633a4.16,4.16,0,0,0,1.8,2.706,5.264,5.264,0,0,0,2.889.78,8.611,8.611,0,0,0,3.992-1.041Zm-2.459-5.321a3.987,3.987,0,0,0-1.04-2.538,2.748,2.748,0,0,0-1.942-.765,3.168,3.168,0,0,0-2.1.779,4.234,4.234,0,0,0-1.329,2.523Z" transform="translate(15.292 2.607)"/><path d="M169.978,29.137a5.063,5.063,0,0,0-2.691-.8,5.236,5.236,0,0,0-3.2,1.162V41.063h-3.577V25.192h3.027l.367,1.3a6.2,6.2,0,0,1,4.037-1.605,9.2,9.2,0,0,1,1.605.138,5.352,5.352,0,0,1,1.56.489Z" transform="translate(16.82 2.607)"/><path d="M182.66,36.95v3.471a9.087,9.087,0,0,1-2.263.718,12.126,12.126,0,0,1-2.247.229,8.416,8.416,0,0,1-5.734-2.048,8.061,8.061,0,0,1-2.447-6.192A8.613,8.613,0,0,1,172.2,27a6.786,6.786,0,0,1,4.907-2.111,7.421,7.421,0,0,1,2.339.383,5.579,5.579,0,0,1,2.723,1.987,8.052,8.052,0,0,1,1.3,4.816v2.386h-9.632a4.156,4.156,0,0,0,1.8,2.706,5.259,5.259,0,0,0,2.889.78,8.619,8.619,0,0,0,3.993-1.041ZM180.2,31.63a3.993,3.993,0,0,0-1.04-2.538,2.749,2.749,0,0,0-1.943-.765,3.165,3.165,0,0,0-2.095.779,4.222,4.222,0,0,0-1.329,2.523Z" transform="translate(17.811 2.607)"/><path d="M184.545,25.193h3.027l.352,1.238a9.294,9.294,0,0,1,5.062-1.544,6.082,6.082,0,0,1,4.019,1.329,5.472,5.472,0,0,1,1.743,4.314V41.064h-3.577v-9.48a3.049,3.049,0,0,0-1.085-2.523,4.052,4.052,0,0,0-2.508-.732,6.7,6.7,0,0,0-3.457.978V41.064h-3.577Z" transform="translate(19.338 2.608)"/><path d="M73.325,52.175l-3.1,9.012h-1.8l-3.091-9.012h1.39l2.6,7.579,2.605-7.579Z" transform="translate(6.847 5.467)"/><path d="M80.376,57.037H74.759a3.45,3.45,0,0,0,.963,2.326,2.841,2.841,0,0,0,2.014.765,5.353,5.353,0,0,0,2.431-.643l.027.009v1.241a5.673,5.673,0,0,1-2.586.643,4.028,4.028,0,0,1-2.935-1.154,5.011,5.011,0,0,1-1.25-3.638,5.3,5.3,0,0,1,.928-3.256,3.5,3.5,0,0,1,2.943-1.31,3.1,3.1,0,0,1,2.033.608,2.716,2.716,0,0,1,.867,1.451,6.992,6.992,0,0,1,.182,1.744Zm-1.32-1.216a3.784,3.784,0,0,0-.372-1.8,1.5,1.5,0,0,0-1.416-.756,2.171,2.171,0,0,0-1.648.721,3.449,3.449,0,0,0-.8,1.832Z" transform="translate(7.694 5.45)"/><path d="M81.891,52.191h.9l.313,1.025a2.92,2.92,0,0,1,2.214-1.2,4.162,4.162,0,0,1,.756.078,3.386,3.386,0,0,1,.738.234l-.47,1.208A3.212,3.212,0,0,0,85.1,53.26a2.28,2.28,0,0,0-1.867,1.208V61.2H81.891Z" transform="translate(8.581 5.45)"/><path d="M87.869,49.126l1.258-.173h.087v4.176a3.678,3.678,0,0,1,2.318-.79,3.569,3.569,0,0,1,2.83,1.329,5.192,5.192,0,0,1,1.06,3.3,5,5,0,0,1-1.1,3.317A4.333,4.333,0,0,1,90.882,61.7a7.958,7.958,0,0,1-3.013-.643Zm1.346,11.061a4.627,4.627,0,0,0,1.762.277,2.9,2.9,0,0,0,2.232-.963,3.919,3.919,0,0,0,.867-2.656,3.8,3.8,0,0,0-.642-2.292,2.458,2.458,0,0,0-2.084-.964,2.492,2.492,0,0,0-2.136.981Z" transform="translate(9.208 5.129)"/><path d="M102.916,57.037H97.3a3.456,3.456,0,0,0,.964,2.326,2.84,2.84,0,0,0,2.015.765,5.355,5.355,0,0,0,2.429-.643l.025.009v1.241a5.665,5.665,0,0,1-2.585.643,4.034,4.034,0,0,1-2.937-1.154,5.02,5.02,0,0,1-1.248-3.638,5.3,5.3,0,0,1,.928-3.256,3.5,3.5,0,0,1,2.942-1.31,3.1,3.1,0,0,1,2.032.608,2.7,2.7,0,0,1,.868,1.451,6.942,6.942,0,0,1,.183,1.744ZM101.6,55.821a3.81,3.81,0,0,0-.373-1.8,1.5,1.5,0,0,0-1.416-.756,2.168,2.168,0,0,0-1.648.721,3.441,3.441,0,0,0-.8,1.832Z" transform="translate(10.056 5.45)"/><path d="M110.347,57.037H104.73a3.461,3.461,0,0,0,.963,2.326,2.844,2.844,0,0,0,2.015.765,5.36,5.36,0,0,0,2.431-.643l.025.009v1.241a5.669,5.669,0,0,1-2.586.643,4.027,4.027,0,0,1-2.934-1.154,5.011,5.011,0,0,1-1.251-3.638,5.3,5.3,0,0,1,.929-3.256,3.5,3.5,0,0,1,2.943-1.31,3.1,3.1,0,0,1,2.032.608,2.716,2.716,0,0,1,.867,1.451,6.992,6.992,0,0,1,.182,1.744Zm-1.319-1.216a3.77,3.77,0,0,0-.373-1.8,1.5,1.5,0,0,0-1.414-.756,2.17,2.17,0,0,0-1.649.721,3.45,3.45,0,0,0-.8,1.832Z" transform="translate(10.834 5.45)"/><path d="M111.453,49.127l1.251-.173h.087V61.525h-1.338Z" transform="translate(11.679 5.129)"/><path d="M122.1,61.524h-.852l-.278-.8a3.736,3.736,0,0,1-2.534.963,3.5,3.5,0,0,1-2.83-1.424,5.5,5.5,0,0,1-1.058-3.376,4.708,4.708,0,0,1,1.111-3.229,4.409,4.409,0,0,1,3.428-1.32,8.562,8.562,0,0,1,1.667.182V49.126l1.259-.173h.087Zm-1.347-7.6a4.908,4.908,0,0,0-1.762-.356,2.977,2.977,0,0,0-2.222.86,3.572,3.572,0,0,0-.877,2.57,4.194,4.194,0,0,0,.642,2.386,2.409,2.409,0,0,0,2.084,1.052,2.492,2.492,0,0,0,2.136-.981Z" transform="translate(12.003 5.129)"/><path d="M123.9,50.039a.932.932,0,0,1,.928-.929.963.963,0,0,1,.66.27.933.933,0,0,1,.278.66.88.88,0,0,1-.278.643.937.937,0,0,1-.66.277.906.906,0,0,1-.652-.277.878.878,0,0,1-.276-.643m.26,2.457H125.5v9.012h-1.337Z" transform="translate(12.983 5.146)"/><path d="M128.1,52.191h.9l.253.834a7.624,7.624,0,0,1,1.3-.686,3.943,3.943,0,0,1,1.4-.321,3.241,3.241,0,0,1,2.241.755,3.45,3.45,0,0,1,.947,2.666V61.2H133.8V55.517a2.42,2.42,0,0,0-.572-1.78,1.937,1.937,0,0,0-1.4-.477,3.368,3.368,0,0,0-1.251.278,8.031,8.031,0,0,0-1.128.59V61.2H128.1Z" transform="translate(13.424 5.45)"/><path d="M140.533,59.366a4.409,4.409,0,0,1,2.752.756,2.247,2.247,0,0,1,.885,1.78,3.141,3.141,0,0,1-1.476,2.482,5.542,5.542,0,0,1-3.161,1.015,3.561,3.561,0,0,1-2.439-.841,2.691,2.691,0,0,1-.894-2.032,3.457,3.457,0,0,1,1.076-2.291,1.392,1.392,0,0,1-.547-.643,2.026,2.026,0,0,1-.19-.808,2.617,2.617,0,0,1,.651-1.572,2.517,2.517,0,0,1-.556-.98,3.845,3.845,0,0,1-.19-1.163,2.843,2.843,0,0,1,.928-2.145,3.517,3.517,0,0,1,2.405-.86,3.57,3.57,0,0,1,1.744.418,5.252,5.252,0,0,1,1.216-.677,3.083,3.083,0,0,1,1.084-.234l.4,1.137a4.672,4.672,0,0,0-1.695.651,2.88,2.88,0,0,1,.521,1.676,3.112,3.112,0,0,1-.938,2.231,3.43,3.43,0,0,1-2.422.947,3.74,3.74,0,0,1-1.667-.391,1.226,1.226,0,0,0-.3.738c0,.452.391.808,1.111.808Zm-2.214,1.154a3.021,3.021,0,0,0-.8,1.884,1.715,1.715,0,0,0,.495,1.311,2.418,2.418,0,0,0,1.694.513,3.664,3.664,0,0,0,2.231-.721,1.973,1.973,0,0,0,.861-1.519,1.253,1.253,0,0,0-1.016-1.242,8.865,8.865,0,0,0-2.448-.225Zm1.423-7.257a2.081,2.081,0,0,0-1.528.608,1.811,1.811,0,0,0,.009,2.552,2.084,2.084,0,0,0,1.546.6,2.018,2.018,0,0,0,1.511-.6,1.8,1.8,0,0,0,.5-1.258,1.931,1.931,0,0,0-.512-1.294,2.05,2.05,0,0,0-1.529-.608" transform="translate(14.272 5.404)"/><path d="M161.78,52.175l-2.857,9.012h-1.667l-2-6.858-2.006,6.858h-1.675l-2.848-9.012h1.3L152.4,59.7l2.231-7.527h1.233L158.1,59.7l2.387-7.527Z" transform="translate(15.584 5.467)"/><path d="M168.357,57.037H162.74a3.46,3.46,0,0,0,.963,2.326,2.845,2.845,0,0,0,2.015.765,5.36,5.36,0,0,0,2.431-.643l.025.009v1.241a5.669,5.669,0,0,1-2.586.643,4.027,4.027,0,0,1-2.934-1.154,5.011,5.011,0,0,1-1.251-3.638,5.3,5.3,0,0,1,.929-3.256,3.5,3.5,0,0,1,2.943-1.31,3.1,3.1,0,0,1,2.032.608,2.716,2.716,0,0,1,.867,1.451,6.989,6.989,0,0,1,.182,1.744Zm-1.319-1.216a3.77,3.77,0,0,0-.373-1.8,1.5,1.5,0,0,0-1.414-.756,2.17,2.17,0,0,0-1.649.721,3.449,3.449,0,0,0-.8,1.832Z" transform="translate(16.913 5.45)"/><path d="M169.873,52.191h.9l.313,1.025a2.92,2.92,0,0,1,2.214-1.2,4.152,4.152,0,0,1,.756.078,3.385,3.385,0,0,1,.738.234l-.469,1.208a3.218,3.218,0,0,0-1.242-.278,2.281,2.281,0,0,0-1.866,1.208V61.2h-1.346Z" transform="translate(17.801 5.45)"/><path d="M182.118,61.7a2.974,2.974,0,0,1-1.51-.729,11.134,11.134,0,0,1-1.571-1.528,17.964,17.964,0,0,1-1.267-1.589,6.549,6.549,0,0,1-.391-.582,2.008,2.008,0,0,1-.182-.321v4.576h-1.346V49.187l1.258-.234h.087v7.831l3.576-4.271h1.719l-3.662,4.358a3.721,3.721,0,0,0,.746,1.1,13.881,13.881,0,0,0,1.511,1.537,4.969,4.969,0,0,0,1.588,1Z" transform="translate(18.427 5.129)"/><path d="M182.568,52.35h1V50.736l1.259-.235h.087V52.35h2.5V53.6h-2.5v4.428a2.762,2.762,0,0,0,.468,1.744,1.4,1.4,0,0,0,1.154.52,3.519,3.519,0,0,0,1.693-.538l.365,1.233a5.446,5.446,0,0,1-2.223.547,2.558,2.558,0,0,1-1.986-.806,3.882,3.882,0,0,1-.818-2.7V53.6h-1Z" transform="translate(19.131 5.291)"/><rect width="0.469" height="96.884" transform="translate(40.529 0.151) rotate(-18.784)"/><path d="M39.319,44c-2.25-1.718-3.3.013-4.72-.1-1.2-.1-2.32-2.028-3.247-1.567-1.768.9.709,4.083,1.784,4.732a26.209,26.209,0,0,0,2.453,1.237,3.582,3.582,0,0,1,2.166,3.24,6.213,6.213,0,0,1-.088,1.564c-.649,2.753-5.472,5.254-8.242,3.362a6.261,6.261,0,0,1-2.908-4.091c-.746-3.618-3.357-6.28-4.195-9.82-.509-2.151-.886-4.421-1.447-6.586-.571-2.237-1.159-4.453-1.627-6.486a57.492,57.492,0,0,0-1.976-6.435c-2.646-6.907-3.841-6.406-3.841-6.406s.963,1.918,4.467,18.846c.145.693,1.419,8.15,2.348,10.6.333.881.913,2.761,1.295,3.591,1.115,2.426,4.057,6.1,4.251,9.417.113,1.916.33,3.5.376,4.952a15.436,15.436,0,0,0,.492,2.922c.718,2.022,6.518,8.544,12.676,8.544V70.582c-6.118,0-11.882-3.429-12.025-3.789a13.368,13.368,0,0,1,.732-3.541,5.79,5.79,0,0,1,4.972-4.05c2.964-.213,4.753.647,6.32.647Z" transform="translate(1.407 1.743)"/><path d="M13.785,25.17c-.224,3.7-5.954,8.764-7.749,12.009A23.93,23.93,0,0,0,3.806,43.1a15.793,15.793,0,0,0,1.282,9.747c1.9,4.544-.256,6.214,1.225,5.293,1.836-1.5,1.557-4.983,1.422-7.16A30.914,30.914,0,0,1,7.776,45.1c.508-3.94,2.895-8.17,4.931-11.125a10.156,10.156,0,0,0,1.078-8.807" transform="translate(0.37 2.637)"/><path d="M14.228,34.687s.611,2.931-1.976,10.473c-6.767,19.725,6.159,21.593,9.839,26.231,0,0,1.424-2.011-4.438-8.439-2.141-2.35-4.072-7.527-2.39-14.922,2.433-10.705-1.035-13.342-1.035-13.342" transform="translate(1.082 3.634)"/><path d="M2.31,24.209a9.521,9.521,0,0,1-.336-3.138c.313-4.635,4.522-6.51,5.57-7.2,0,0,1.893-1.3,2.137-2.605,0,0,1.938,4.878-2.506,7.673A12.641,12.641,0,0,0,2.31,24.209" transform="translate(0.205 1.18)"/><path d="M13.128,19.052c.24.471,1.984,3.024-5.16,8.92s-4.9,10.1-4.9,10.1S-4.547,33.838,4.22,26.523s6.969-8.791,6.969-8.791a2.178,2.178,0,0,1,1.939,1.32" transform="translate(0 1.858)"/><path d="M20.278,21.016c1.234.161,2.02,4.011,4.874,4.848,2.1.613,4.331.281,4.826,1.543-.963.512-.2,2.205.765,1.928.8-2.249,1.2-10.943-10.465-8.319m3.845,1.732c.1-.276.253-.054.566-.251.334-.315.675-.832,1.216-1a2.167,2.167,0,0,1,1.285.077c.242.06.1.682-.086.841-.386.285-1.527-.184-1.527.671.048,1.4,1.895-.044,2.86,0,.472,3.419-5.155,2.478-4.314-.329" transform="translate(2.125 2.151)"/></g></g></g></svg>