<svg xmlns="http://www.w3.org/2000/svg" width="34" height="34" fill="none"><path fill="#000" d="M15.582 24.082h2.833v-8.5h-2.833v8.5Zm1.417-11.333c.401 0 .738-.136 1.01-.408.272-.272.407-.608.406-1.009a1.378 1.378 0 0 0-.408-1.009A1.367 1.367 0 0 0 17 9.915c-.402 0-.738.136-1.009.408a1.378 1.378 0 0 0-.408 1.009c0 .4.135.737.408 1.01.273.273.61.409 1.009.407Zm0 18.416c-1.96 0-3.802-.372-5.525-1.116a14.327 14.327 0 0 1-4.498-3.027c-1.275-1.274-2.284-2.774-3.028-4.498-.743-1.725-1.115-3.567-1.116-5.525 0-1.96.371-3.8 1.116-5.525.746-1.725 1.755-3.224 3.028-4.498 1.273-1.274 2.772-2.283 4.498-3.028 1.725-.744 3.567-1.116 5.525-1.116 1.957 0 3.8.372 5.525 1.116 1.725.745 3.224 1.754 4.498 3.028 1.273 1.274 2.282 2.773 3.029 4.498.746 1.724 1.117 3.566 1.114 5.525-.002 1.959-.375 3.8-1.116 5.525a14.21 14.21 0 0 1-3.027 4.498 14.39 14.39 0 0 1-4.498 3.028c-1.722.746-3.564 1.117-5.525 1.115Z"/></svg>